<svg xmlns="http://www.w3.org/2000/svg" viewBox="0 0 800 600">
  <rect width="800" height="600" fill="#0f172a"/>
  
  <!-- Filter Bar -->
  <rect x="50" y="40" width="700" height="60" rx="10" fill="#1e293b" stroke="#334155"/>
  <text x="70" y="78" fill="#f1f5f9" font-family="sans-serif" font-size="18">Start Date - End Date</text>
  <rect x="650" y="55" width="80" height="30" rx="5" fill="#3b82f6"/>
  <text x="690" y="75" fill="#ffffff" font-family="sans-serif" font-size="12" text-anchor="middle" font-weight="bold">Filter</text>

  <!-- Drive Item 1 -->
  <rect x="50" y="120" width="700" height="200" rx="15" fill="#1e293b" stroke="#334155"/>
  <!-- Header -->
  <text x="80" y="160" fill="#f1f5f9" font-family="sans-serif" font-size="24" font-weight="bold">10/24/2023</text>
  <text x="80" y="185" fill="#94a3b8" font-family="sans-serif" font-size="16">08:30 ➜ 09:15</text>
  <text x="720" y="160" fill="#22c55e" font-family="sans-serif" font-size="28" font-weight="bold" text-anchor="end">159</text>
  <text x="720" y="185" fill="#64748b" font-family="sans-serif" font-size="14" text-anchor="end">Wh/km</text>
  
  <!-- Stats -->
  <rect x="80" y="200" width="100" height="60" rx="8" fill="#0f172a" stroke="#334155"/>
  <text x="130" y="225" fill="#94a3b8" font-family="sans-serif" font-size="10" text-anchor="middle">DISTANCE</text>
  <text x="130" y="245" fill="#f1f5f9" font-family="sans-serif" font-size="16" text-anchor="middle" font-weight="bold">45.2 km</text>

  <rect x="190" y="200" width="100" height="60" rx="8" fill="#0f172a" stroke="#334155"/>
  <text x="240" y="225" fill="#94a3b8" font-family="sans-serif" font-size="10" text-anchor="middle">DURATION</text>
  <text x="240" y="245" fill="#f1f5f9" font-family="sans-serif" font-size="16" text-anchor="middle" font-weight="bold">45 min</text>

  <!-- Graph -->
  <path d="M80 290 L120 280 L180 285 L250 260 L350 265 L450 250 L600 280 L720 290" fill="none" stroke="#3b82f6" stroke-width="3"/>
  <path d="M80 290 L120 280 L180 285 L250 260 L350 265 L450 250 L600 280 L720 290 V 300 H 80 Z" fill="#3b82f6" fill-opacity="0.2"/>

  <!-- Drive Item 2 (Partial) -->
  <rect x="50" y="340" width="700" height="200" rx="15" fill="#1e293b" stroke="#334155" opacity="0.6"/>
  <text x="80" y="380" fill="#f1f5f9" font-family="sans-serif" font-size="24" font-weight="bold">10/23/2023</text>
</svg>